<?xml version="1.0" encoding="UTF-8"?>
<svg xmlns="http://www.w3.org/2000/svg" xmlns:svg="http://www.w3.org/2000/svg" xmlns:sodipodi="http://sodipodi.sourceforge.net/DTD/sodipodi-0.dtd" xmlns:rdf="http://www.w3.org/1999/02/22-rdf-syntax-ns#" xmlns:inkscape="http://www.inkscape.org/namespaces/inkscape" xmlns:dc="http://purl.org/dc/elements/1.1/" xmlns:cc="http://creativecommons.org/ns#" version="1.1" viewBox="0 0 175 175">
  <defs>
    <style>
      .cls-1 {
        fill: #f2d844;
        stroke-width: 0px;
      }
    </style>
  </defs>
  <g id="svg2" inkscape:version="0.48.4 r9939" sodipodi:docname="Twitter_bird_logo_2012.svg">
    <sodipodi:namedview id="base" bordercolor="#666666" borderopacity="1.0" fit-margin-bottom="0" fit-margin-left="0" fit-margin-right="0" fit-margin-top="0" inkscape:current-layer="layer1" inkscape:cx="101.29413" inkscape:cy="50.181142" inkscape:document-units="px" inkscape:pageopacity="0.0" inkscape:pageshadow="2" inkscape:window-height="962" inkscape:window-maximized="1" inkscape:window-width="1280" inkscape:window-x="-8" inkscape:window-y="-8" inkscape:zoom="3.7200571" pagecolor="#ffffff" showgrid="false"/>
    <g id="layer1" inkscape:groupmode="layer" inkscape:label="Layer 1">
      <path id="path5" class="cls-1" d="M173.3,34.3c-6.3,2.8-13.1,4.7-20.2,5.5,7.3-4.4,12.8-11.2,15.5-19.5-6.8,4-14.3,7-22.3,8.5-6.4-6.8-15.6-11.1-25.7-11.1-19.4,0-35.2,15.8-35.2,35.2s.3,5.4.9,8c-29.2-1.5-55.2-15.5-72.5-36.8-3,5.2-4.8,11.2-4.8,17.7,0,12.2,6.2,23,15.7,29.3-5.8-.2-11.2-1.8-15.9-4.4,0,.1,0,.3,0,.4,0,17,12.1,31.3,28.2,34.5-3,.8-6.1,1.2-9.3,1.2s-4.5-.2-6.6-.6c4.5,14,17.5,24.2,32.9,24.4-12,9.4-27.2,15.1-43.7,15.1s-5.6-.2-8.4-.5c15.6,10,34.1,15.8,53.9,15.8,64.7,0,100.1-53.6,100.1-100.1s0-3-.1-4.6c6.9-5,12.8-11.2,17.6-18.2h0Z" inkscape:connector-curvature="0"/>
    </g>
  </g>
</svg>