<?xml version="1.0" encoding="UTF-8"?>
<svg id="Layer_1" data-name="Layer 1" xmlns="http://www.w3.org/2000/svg" viewBox="0 0 288 288">
  <defs>
    <style>
      .cls-1, .cls-2 {
        stroke-width: 0px;
      }

      .cls-2 {
        fill: #fff;
      }
    </style>
  </defs>
  <rect class="cls-2" width="288" height="288"/>
  <path class="cls-1" d="M213.18,153.19c-4.68,19.74-19.48,23.21-37.92,20.94-22.07-2.72-37.36-20.7-34.31-45.47.75-6.09,2.7-12.39,5.4-18.17-.13-.04.46.13.91.27,5.95,1.81,12.76,3.26,20.07,4.17,24.43,3.01,45.06-1.2,46.07-9.42,1.01-8.21-17.97-17.32-42.4-20.33-.14-.02-.27-.03-.41-.04-17.73-2.13-33.37-.45-40.91,3.8-1.22.9-2.39,1.86-3.53,2.85-4.65,4.21-8.66,9.22-12.03,14.77-4.16-6.1-10.43-10.34-17.8-11.25-6.04-.75-11.49.95-15.74,4.91-4.74,4.41-7.85,11.62-8.52,19.78-1.09,13.3,10.72,19.3,18.53,24.58,5.19,3.51,10.38,10.91,12.47,17.96.36,1.22.78,2.19,1.24,2.97,6.47,21.15,25.64,34.68,49.54,37.63,32.12,3.96,57.25-9.33,61.57-44.32.21-1.74.44-3.11.59-4.85l-2.82-.77ZM91.51,136.81c-6.35-5.08-7.94-9.86-7.42-16.23.44-5.34,2.29-9.89,5.08-12.49,2.27-2.11,2.81-2.36,5.89-2.48,6.42-.25,11.51,4.6,13.88,11.08-3.25,7.66-5.44,15.96-6.48,24.41-.23,1.89-.37,3.73-.44,5.55-3.51-3.65-7.26-7.25-10.5-9.84ZM136.55,96.02c.77-6.26,14.23-9.89,31.29-8.91-12.57-.22-23.02,6.1-24.14,15.19-.12.93-.1,1.86-.01,2.78-4.8-2.83-7.51-6-7.14-9.05Z"/>
</svg>